<svg width="64" height="65" viewBox="0 0 64 65" fill="none" xmlns="http://www.w3.org/2000/svg">
<g clip-path="url(#clip0_288_6154)">
<path d="M1.94118 29.4615H31.9999C33.0704 29.4615 33.9412 30.3324 33.9412 31.4028V48.4737C34.0649 48.4673 34.1887 48.4609 34.3111 48.4522C34.8274 48.4135 35.2779 48.8047 35.3149 49.3223C35.3521 49.8398 34.9626 50.2892 34.4449 50.3262C34.2782 50.338 34.1099 50.3477 33.9413 50.3554V54.4479C33.9413 55.5184 33.0704 56.3892 32.0001 56.3892H21.0407L21.8078 62.5262H22.8571C23.3759 62.5262 23.7964 62.9468 23.7964 63.4655C23.7964 63.9843 23.3759 64.4049 22.8571 64.4049H10.9588C10.4399 64.4049 10.0194 63.9843 10.0194 63.4655C10.0194 62.9468 10.4399 62.5262 10.9588 62.5262H12.1334L12.9006 56.3892H1.94118C0.870686 56.3892 -6.48499e-05 55.5183 -6.48499e-05 54.4479V31.4029C-6.48499e-05 30.3324 0.870811 29.4615 1.94118 29.4615ZM19.9143 62.5262L19.1472 56.3892H14.7939L14.0268 62.5262H19.9143ZM1.87856 54.4478C1.87856 54.4824 1.90668 54.5104 1.94118 54.5104H31.9999C32.0344 54.5104 32.0626 54.4824 32.0626 54.4478V52.3813H1.87856V54.4478ZM1.87856 50.5027H32.0626V35.348H1.87856V50.5027ZM1.87856 33.4694H32.0626V31.4029C32.0626 31.3684 32.0344 31.3403 31.9999 31.3403H1.94118C1.90668 31.3403 1.87856 31.3683 1.87856 31.4029V33.4694Z" fill="#EE812B"/>
<path d="M22.9824 21.446H26.0509V13.6877C25.7015 13.8332 25.3555 13.9887 25.0174 14.155C24.884 14.2208 24.7425 14.2519 24.6031 14.2519C24.2565 14.2519 23.9231 14.0593 23.7598 13.7274C23.5305 13.262 23.722 12.6989 24.1875 12.4697C24.7925 12.1717 25.4193 11.9029 26.051 11.6683V2.34604C26.051 1.27554 26.9219 0.404785 27.9922 0.404785H58.0509C59.1214 0.404785 59.9921 1.27566 59.9921 2.34604V21.4458H63.0606C63.5795 21.4458 64 21.8664 64 22.3852V24.389C64 25.4595 63.1291 26.3303 62.0588 26.3303H52.3612C52.5165 26.4659 52.6288 26.6528 52.6678 26.8714C52.7901 27.5577 52.8774 28.2594 52.9271 28.957C52.9642 29.4745 52.5746 29.9239 52.0571 29.961C52.0344 29.9627 52.0118 29.9635 51.9893 29.9635C51.501 29.9635 51.0886 29.5857 51.0533 29.091C51.008 28.4587 50.9289 27.8229 50.818 27.2014C50.7581 26.8655 50.8856 26.5403 51.1246 26.3304H23.9842C22.9137 26.3304 22.043 25.4595 22.043 24.3892V22.3853C22.043 21.8665 22.4635 21.446 22.9824 21.446ZM58.1135 6.29129H39.4834C38.9645 6.29129 38.544 5.87066 38.544 5.35191C38.544 4.83316 38.9645 4.41254 39.4834 4.41254H58.1135V2.34604C58.1135 2.31141 58.0854 2.28341 58.0509 2.28341H27.9921C27.9576 2.28341 27.9295 2.31141 27.9295 2.34604V4.41254H34.9745C35.4934 4.41254 35.9139 4.83316 35.9139 5.35191C35.9139 5.87066 35.4934 6.29129 34.9745 6.29129H27.9295V21.4459H58.1135V6.29129ZM23.9217 24.3892C23.9217 24.4238 23.9499 24.4518 23.9844 24.4518H62.0588C62.0933 24.4518 62.1214 24.4238 62.1214 24.3892V23.3245H23.9217V24.3892Z" fill="#EE812B"/>
<path d="M38.0806 47.7767C38.6921 47.5982 39.3004 47.385 39.8892 47.1423C40.3688 46.9447 40.9179 47.1736 41.1154 47.6532C41.3131 48.1328 41.0844 48.6818 40.6047 48.8795C39.9543 49.1473 39.2819 49.3831 38.6067 49.5801C38.5189 49.6057 38.4303 49.618 38.3432 49.618C37.9364 49.618 37.5616 49.3517 37.4418 48.9415C37.2966 48.4437 37.5824 47.9221 38.0806 47.7767Z" fill="#EE812B"/>
<path d="M43.2552 45.3163C43.5171 45.136 43.7758 44.9473 44.0247 44.7559C44.0447 44.7406 44.0654 44.7269 44.0862 44.7133V36.4126C44.0862 35.3421 44.9571 34.4713 46.0274 34.4713H50.6389C50.7583 33.9516 50.8567 33.4228 50.9297 32.8944C51.0006 32.3804 51.4739 32.0211 51.9886 32.0921C52.5024 32.1628 52.8617 32.6371 52.7907 33.151C52.7298 33.5923 52.6521 34.0338 52.5614 34.4713H58.0509C59.1214 34.4713 59.9922 35.3422 59.9922 36.4126V56.4517C59.9922 57.5222 59.1213 58.393 58.0509 58.393H46.0274C44.9569 58.393 44.0862 57.5221 44.0862 56.4517V46.9791C43.9892 47.0116 43.8889 47.0291 43.7889 47.0291C43.4903 47.0291 43.1967 46.8871 43.0146 46.6227C42.7202 46.1955 42.8279 45.6106 43.2552 45.3163ZM45.9648 56.4518C45.9648 56.4865 45.9929 56.5145 46.0274 56.5145H58.0509C58.0854 56.5145 58.1136 56.4865 58.1136 56.4518V54.3853H45.9648V56.4518ZM45.9648 52.5066H58.1136V39.356H45.9648V52.5066ZM45.9648 37.4772H58.1136V36.4126C58.1136 36.378 58.0854 36.35 58.0509 36.35H46.0274C45.9929 36.35 45.9648 36.378 45.9648 36.4126V37.4772Z" fill="#EE812B"/>
<path d="M13.2996 27.0835C13.4147 26.3946 13.5681 25.7042 13.7553 25.0314C13.8944 24.5316 14.4126 24.2391 14.9122 24.3785C15.4121 24.5176 15.7043 25.0355 15.5652 25.5354C15.3956 26.1445 15.2567 26.7696 15.1526 27.3931C15.0759 27.8524 14.6781 28.1777 14.2271 28.1777C14.1757 28.1777 14.1236 28.1735 14.0712 28.1647C13.5596 28.0791 13.2139 27.5951 13.2996 27.0835Z" fill="#EE812B"/>
<path d="M19.0585 16.0955C19.5588 15.6079 20.09 15.1416 20.6377 14.7095C21.0447 14.3885 21.6357 14.4578 21.9569 14.8651C22.2784 15.2723 22.2087 15.863 21.8014 16.1844C21.305 16.5759 20.8234 16.9988 20.3698 17.4409C20.1872 17.6189 19.9505 17.7075 19.7144 17.7075C19.4699 17.7075 19.2257 17.6128 19.0415 17.4239C18.6793 17.0524 18.6869 16.4576 19.0585 16.0955Z" fill="#EE812B"/>
<path d="M15.3032 21.1292C15.6274 20.5113 15.9884 19.9037 16.3762 19.3229C16.6642 18.8914 17.2474 18.7752 17.6789 19.0633C18.1103 19.3514 18.2265 19.9347 17.9384 20.366C17.5872 20.892 17.26 21.4425 16.9664 22.0022C16.7984 22.3223 16.4719 22.5052 16.134 22.5052C15.9869 22.5052 15.8375 22.4704 15.6983 22.3974C15.2389 22.1563 15.062 21.5885 15.3032 21.1292Z" fill="#EE812B"/>
</g>
<defs>
<clipPath id="clip0_288_6154">
<rect width="64" height="64" fill="white" transform="matrix(-1 0 0 1 64 0.404785)"/>
</clipPath>
</defs>
</svg>
