<svg width="64" height="64" viewBox="0 0 64 64" fill="none" xmlns="http://www.w3.org/2000/svg">
<path fill-rule="evenodd" clip-rule="evenodd" d="M3.30046 37.3203H9.07821V33.5012C9.07821 32.9489 9.52596 32.5012 10.0782 32.5012H31.0001L33.0001 32.5009H53.9221C54.4743 32.5009 54.9221 32.9486 54.9221 33.5009V37.32H60.6997C61.252 37.32 61.6997 37.7678 61.6997 38.32V62C61.6997 62.5523 61.252 63 60.6997 63H47.1443C46.5921 63 46.1443 62.5523 46.1443 62V38.3203C46.1443 37.768 46.5921 37.3203 47.1443 37.3203H52.9221V34.5012H33.0001V37.3203H38.7777C39.33 37.3203 39.7777 37.768 39.7777 38.3203V62C39.7777 62.5523 39.33 63 38.7777 63H25.2223C24.6701 63 24.2223 62.5523 24.2223 62V38.3203C24.2223 37.768 24.6701 37.3203 25.2223 37.3203H31.0001V34.5012H11.0782V37.3203H16.8558C17.4081 37.3203 17.8558 37.768 17.8558 38.3203V62C17.8558 62.5523 17.4081 63 16.8558 63H3.30046C2.74821 63 2.30046 62.5523 2.30046 62V38.3203C2.30046 37.7679 2.74809 37.3203 3.30046 37.3203ZM59.6997 61H48.1443V39.3203H59.6997V61ZM37.7777 61H26.2223V39.3203H37.7777V61ZM15.8558 61H4.30046V39.3203H15.8558V61Z" fill="#EE812B"/>
<path fill-rule="evenodd" clip-rule="evenodd" d="M10.0782 53.1384C11.9476 53.1384 13.4685 54.6593 13.4685 56.5287C13.4685 58.398 11.9476 59.9189 10.0782 59.9189C8.20884 59.9189 6.68796 58.398 6.68796 56.5287C6.68796 54.6593 8.20884 53.1384 10.0782 53.1384ZM11.4685 56.5288C11.4685 57.2954 10.8448 57.919 10.0782 57.919C9.31158 57.919 8.68796 57.2954 8.68796 56.5288C8.68796 55.7622 9.31158 55.1385 10.0782 55.1385C10.8448 55.1385 11.4685 55.7622 11.4685 56.5288Z" fill="#EE812B"/>
<path fill-rule="evenodd" clip-rule="evenodd" d="M32.0001 53.1384C33.8695 53.1384 35.3903 54.6593 35.3903 56.5287C35.3903 58.398 33.8695 59.9189 32.0001 59.9189C30.1307 59.9189 28.6098 58.398 28.6098 56.5287C28.6098 54.6593 30.1307 53.1384 32.0001 53.1384ZM33.3903 56.5288C33.3903 57.2954 32.7667 57.919 32.0001 57.919C31.2336 57.919 30.6098 57.2954 30.6098 56.5288C30.6098 55.7622 31.2335 55.1385 32.0001 55.1385C32.7667 55.1385 33.3903 55.7622 33.3903 56.5288Z" fill="#EE812B"/>
<path fill-rule="evenodd" clip-rule="evenodd" d="M36.3516 43.5744C36.3516 43.0222 35.9038 42.5744 35.3516 42.5744H28.6487C28.0965 42.5744 27.6487 43.0222 27.6487 43.5744C27.6487 44.1267 28.0965 44.5744 28.6487 44.5744H35.3516C35.9038 44.5744 36.3516 44.1268 36.3516 43.5744ZM36.3516 48.397C36.3516 47.8448 35.9038 47.397 35.3516 47.397H28.6487C28.0965 47.397 27.6487 47.8448 27.6487 48.397C27.6487 48.9493 28.0965 49.397 28.6487 49.397H35.3516C35.9038 49.397 36.3516 48.9493 36.3516 48.397ZM58.2736 43.5744C58.2736 43.0222 57.8258 42.5744 57.2736 42.5744H50.5707C50.0185 42.5744 49.5707 43.0222 49.5707 43.5744C49.5707 44.1267 50.0185 44.5744 50.5707 44.5744H57.2736C57.8258 44.5744 58.2736 44.1268 58.2736 43.5744ZM58.2736 48.397C58.2736 47.8448 57.8258 47.397 57.2736 47.397H50.5707C50.0185 47.397 49.5707 47.8448 49.5707 48.397C49.5707 48.9493 50.0185 49.397 50.5707 49.397H57.2736C57.8258 49.397 58.2736 48.9493 58.2736 48.397ZM13.4297 42.5744C13.982 42.5744 14.4297 43.0222 14.4297 43.5744C14.4297 44.1268 13.982 44.5744 13.4297 44.5744H6.72683C6.17458 44.5744 5.72683 44.1267 5.72683 43.5744C5.72683 43.0222 6.17458 42.5744 6.72683 42.5744H13.4297ZM13.4297 47.397C13.982 47.397 14.4297 47.8448 14.4297 48.397C14.4297 48.9493 13.982 49.397 13.4297 49.397H6.72683C6.17458 49.397 5.72683 48.9493 5.72683 48.397C5.72683 47.8448 6.17458 47.397 6.72683 47.397H13.4297Z" fill="#EE812B"/>
<path fill-rule="evenodd" clip-rule="evenodd" d="M53.9221 53.1384C55.7915 53.1384 57.3123 54.6593 57.3123 56.5287C57.3123 58.398 55.7915 59.9189 53.9221 59.9189C52.0527 59.9189 50.5318 58.398 50.5318 56.5287C50.5318 54.6593 52.0527 53.1384 53.9221 53.1384ZM55.3123 56.5288C55.3123 57.2954 54.6887 57.919 53.9221 57.919C53.1555 57.919 52.5318 57.2954 52.5318 56.5288C52.5318 55.7622 53.1555 55.1385 53.9221 55.1385C54.6887 55.1385 55.3123 55.7622 55.3123 56.5288Z" fill="#EE812B"/>
<path d="M16.2222 17.4358C16.0676 17.2867 15.9482 17.105 15.8727 16.9039C15.7971 16.7028 15.7673 16.4874 15.7854 16.2734C15.8035 16.0593 15.869 15.852 15.9773 15.6665C16.0855 15.481 16.2338 15.3219 16.4112 15.2008C21.024 12.2044 26.4086 10.6138 31.9092 10.6228C37.6242 10.6228 42.9492 12.3028 47.4072 15.2008C47.5855 15.3212 47.7346 15.48 47.8436 15.6655C47.9525 15.8511 48.0184 16.0587 48.0365 16.2731C48.0547 16.4875 48.0245 16.7032 47.9483 16.9044C47.8721 17.1056 47.7518 17.2872 47.5962 17.4358C47.3406 17.6853 47.0078 17.8405 46.6524 17.8759C46.2969 17.9113 45.94 17.8249 45.6402 17.6308C41.5421 15.006 36.7758 13.6147 31.9092 13.6228C27.0436 13.6153 22.2784 15.0065 18.1812 17.6308C17.5632 18.0268 16.7412 17.9548 16.2222 17.4358ZM22.7712 23.9848C22.0932 23.3068 22.2162 22.1698 23.0712 21.7348C25.8087 20.3418 28.8376 19.6179 31.9092 19.6228C35.0892 19.6228 38.0952 20.3848 40.7472 21.7348C41.6022 22.1698 41.7252 23.3068 41.0472 23.9848L41.0022 24.0298C40.5222 24.5098 39.7812 24.5998 39.1692 24.2998C36.9095 23.1923 34.4257 22.6186 31.9092 22.6228C29.3052 22.6228 26.8392 23.2258 24.6492 24.3028C24.0402 24.6028 23.2992 24.5128 22.8192 24.0298L22.7712 23.9848ZM28.7292 29.9428C28.1412 29.3548 28.1352 28.3828 28.8492 27.9628C29.7747 27.4119 30.8321 27.1217 31.9092 27.1228C32.9863 27.1217 34.0436 27.4119 34.9692 27.9628C35.6832 28.3828 35.6772 29.3548 35.0892 29.9428L32.9712 32.0608C32.6899 32.342 32.3084 32.5 31.9107 32.5C31.513 32.5 31.1315 32.342 30.8502 32.0608L28.7292 29.9398V29.9428Z" fill="#EE812B"/>
<path d="M9.75657 10.9678C9.60572 10.8213 9.48841 10.6439 9.41274 10.4477C9.33706 10.2515 9.30482 10.0412 9.31822 9.83133C9.33162 9.62147 9.39035 9.41701 9.49037 9.23203C9.59039 9.04705 9.72931 8.88595 9.89757 8.75982C16.2935 4.10966 24.0009 1.61058 31.9086 1.62282C40.1316 1.62282 47.7396 4.26882 53.9196 8.75982C54.088 8.88572 54.2272 9.04664 54.3275 9.2315C54.4278 9.41636 54.4868 9.62077 54.5005 9.83063C54.5142 10.0405 54.4822 10.2508 54.4068 10.4472C54.3313 10.6435 54.2143 10.8211 54.0636 10.9678C53.8014 11.2261 53.4561 11.3829 53.0891 11.4103C52.7221 11.4378 52.3573 11.3342 52.0596 11.1178C46.1941 6.88479 39.1419 4.61174 31.9086 4.62282C24.3876 4.62282 17.4276 7.02882 11.7606 11.1148C11.1456 11.5588 10.2906 11.5048 9.75657 10.9678Z" fill="#EE812B"/>
</svg>
