<svg width="64" height="64" viewBox="0 0 64 64" fill="none" xmlns="http://www.w3.org/2000/svg">
<g clip-path="url(#clip0_288_6110)">
<path d="M33.1109 22.1435L31.4561 23.5034C31.2827 23.646 31.0718 23.7168 30.8609 23.7168C30.6328 23.7168 30.4053 23.6338 30.2261 23.4692L25.8574 19.4536C25.4761 19.103 25.4517 18.5107 25.8018 18.1298C26.1524 17.749 26.7451 17.7241 27.126 18.0747L30.895 21.539L31.9199 20.6963C32.3198 20.3676 32.9107 20.4253 33.2393 20.8252C33.5684 21.2246 33.5108 21.8149 33.1109 22.1435Z" fill="#EE812B"/>
<path d="M40.646 21.1475C40.646 26.9575 35.9146 31.6846 30.0991 31.6846C24.2856 31.6846 19.5557 26.9575 19.5557 21.1475C19.5557 15.3369 24.2856 10.6099 30.0991 10.6099C35.9146 10.6099 40.646 15.3369 40.646 21.1475ZM30.0991 12.4834C25.3188 12.4834 21.4302 16.3701 21.4302 21.1475C21.4302 25.9248 25.3188 29.8115 30.0991 29.8115C34.8809 29.8115 38.7715 25.9248 38.7715 21.1475C38.7715 16.3701 34.8809 12.4834 30.0991 12.4834Z" fill="#EE812B"/>
<path fill-rule="evenodd" clip-rule="evenodd" d="M4.02002 0.375H56.1782C58.3945 0.375 60.1982 2.25195 60.1982 4.55908V27.7573H61.8579C63.0391 27.7573 64 28.7192 64 29.9019V61.481C64 62.6631 63.0391 63.625 61.8579 63.625H42.1074C40.9243 63.625 39.9619 62.6631 39.9619 61.4805V55.5752H14.0015C13.0669 55.5752 12.3062 54.8149 12.3062 53.8809V51.7915C12.3062 49.7065 14.0044 48.0107 16.0923 48.0107H17.8979L18.6416 45.9321H4.02002C1.80322 45.9321 0 44.0552 0 41.748V4.55908C0 2.25195 1.80322 0.375 4.02002 0.375ZM56.1782 2.24854C57.3613 2.24854 58.3237 3.28516 58.3237 4.55908V27.7573H56.4385V6.08936C56.4385 5.13525 55.6636 4.35889 54.7109 4.35889L32.002 4.34131L31.9933 4.34135L28.1226 4.35889L5.41309 4.34131C4.48535 4.34131 3.75928 5.10889 3.75928 6.08936V36.2056C3.75928 37.1592 4.53418 37.9355 5.48682 37.9355H39.9619V39.8477V41.7212V44.0586H4.02002C2.83691 44.0586 1.87451 43.022 1.87451 41.748V41.7212V39.8477V4.55908C1.87451 3.28467 2.83691 2.24854 4.02002 2.24854H56.1782ZM5.63379 6.21533L28.1216 6.23242L28.1303 6.23238L32.001 6.21484L54.564 6.23242V27.7573H42.1074C40.9243 27.7573 39.9619 28.7192 39.9619 29.9019V36.062H5.63379V6.21533ZM42.1074 29.6309H61.8579C62.0029 29.6309 62.1255 29.7549 62.1255 29.9019V31.5044H54.2505H50.0269H41.8364V29.9019C41.8364 29.7549 41.9604 29.6309 42.1074 29.6309ZM41.8364 33.3779H50.0269H54.2505H62.1255V58.04H41.8364V33.3779ZM61.8579 61.7515H42.1074C41.9629 61.7515 41.8364 61.625 41.8364 61.4805V59.9136H62.1255V61.4805C62.1255 61.6274 62.0029 61.7515 61.8579 61.7515ZM14.1807 53.7021V51.7915C14.1807 50.7397 15.0381 49.8843 16.0923 49.8843H18.5527L18.5581 49.8848L18.5615 49.8843H39.9619V53.7021H14.1807ZM39.9619 48.0107H19.8887L20.6323 45.9321H39.9619V48.0107Z" fill="#EE812B"/>
<path d="M54.6035 46.8712L53.4872 47.7847C53.3139 47.9263 53.1035 47.9967 52.8935 47.9967C52.665 47.9967 52.4374 47.9136 52.2587 47.7491L49.3212 45.0469C48.9404 44.6968 48.9155 44.1041 49.2665 43.7232C49.6166 43.3428 50.2094 43.3184 50.5908 43.6685L52.9291 45.8199L53.4155 45.4215C53.8159 45.0938 54.4067 45.1524 54.7348 45.5528C55.0624 45.9532 55.0039 46.543 54.6035 46.8712Z" fill="#EE812B"/>
<path d="M59.6489 45.8311C59.6489 49.9136 56.3257 53.2344 52.2412 53.2344C48.1572 53.2344 44.834 49.9136 44.834 45.8311C44.834 41.749 48.1567 38.4277 52.2412 38.4277C56.3257 38.4277 59.6489 41.749 59.6489 45.8311ZM52.2412 40.3013C49.1904 40.3013 46.7085 42.7817 46.7085 45.8311C46.7085 48.8804 49.1904 51.3608 52.2412 51.3608C55.2925 51.3608 57.7744 48.8804 57.7744 45.8311C57.7744 42.7822 55.2925 40.3013 52.2412 40.3013Z" fill="#EE812B"/>
</g>
<defs>
<clipPath id="clip0_288_6110">
<rect width="64" height="64" fill="white" transform="matrix(-1 0 0 1 64 0)"/>
</clipPath>
</defs>
</svg>
