<svg width="496" height="459" viewBox="0 0 496 459" fill="none" xmlns="http://www.w3.org/2000/svg">
<g filter="url(#filter0_b_401_5647)">
<path d="M269.01 388.115C180.411 388.115 108.591 316.896 108.591 229.049C108.591 141.202 180.411 69.9832 269.01 69.9832C291.147 69.9832 312.182 74.4406 331.364 82.454C309.878 72.0867 285.838 66.2269 260.395 66.2269C170.244 66.2269 97.1221 139.299 97.1221 229.5C97.1221 319.701 170.194 392.773 260.395 392.773C291.497 392.773 320.546 384.059 345.287 368.983C322.549 381.204 296.606 388.115 269.01 388.115Z" fill="#FFC394"/>
</g>
<g filter="url(#filter1_b_401_5647)">
<path d="M398.877 158.03C375.839 116.01 332.817 86.1099 281.481 82.3035C249.528 79.9496 219.227 88.0632 193.935 103.739C217.324 90.2669 244.72 83.4555 273.518 85.559C324.954 89.3653 367.725 120.868 389.011 164.641C392.266 162.438 395.522 160.234 398.877 158.03Z" fill="#FFC394"/>
</g>
<g filter="url(#filter2_b_401_5647)">
<path d="M382.6 302.122C355.905 346.046 306.673 373.842 252.532 369.835C226.438 367.932 202.548 358.867 182.565 344.693C204.251 361.121 230.796 371.739 259.994 373.892C312.432 377.749 360.362 353.408 389.11 313.742C387.057 309.835 385.004 305.878 382.6 302.122Z" fill="#FFC394"/>
</g>
<g clip-path="url(#clip0_401_5647)">
<path d="M214.508 253.484L220.864 252.327C221.118 251.637 221.397 250.956 221.7 250.293L218.027 244.987C217.583 244.346 217.378 243.568 217.448 242.791C217.518 242.013 217.859 241.285 218.411 240.733L226.611 232.536C227.162 231.983 227.89 231.642 228.667 231.572C229.445 231.501 230.222 231.707 230.864 232.152L236.17 235.822C236.834 235.519 237.513 235.24 238.207 234.985L239.361 228.631C239.5 227.863 239.905 227.168 240.504 226.668C241.103 226.168 241.859 225.894 242.639 225.893H254.235C255.015 225.894 255.771 226.168 256.37 226.668C256.97 227.168 257.374 227.863 257.514 228.631L258.668 234.985C259.361 235.239 260.04 235.518 260.704 235.822L266.012 232.15C266.653 231.705 267.431 231.5 268.208 231.57C268.985 231.641 269.713 231.982 270.265 232.534L278.463 240.731C279.015 241.283 279.356 242.011 279.426 242.788C279.496 243.566 279.291 244.343 278.847 244.985L275.174 250.291C275.476 250.955 275.756 251.636 276.01 252.324L282.366 253.483C283.134 253.622 283.829 254.027 284.33 254.626C284.83 255.225 285.104 255.982 285.104 256.762V268.358C285.104 269.138 284.83 269.894 284.329 270.493C283.829 271.093 283.134 271.497 282.366 271.636L276.01 272.794C275.756 273.484 275.477 274.165 275.174 274.828L278.847 280.13C279.291 280.772 279.496 281.55 279.426 282.327C279.356 283.105 279.015 283.833 278.463 284.385L270.265 292.585C269.712 293.136 268.985 293.476 268.208 293.546C267.431 293.617 266.654 293.412 266.012 292.969L260.704 289.298C260.04 289.601 259.361 289.88 258.667 290.135L257.513 296.489C257.374 297.257 256.969 297.952 256.37 298.452C255.771 298.952 255.015 299.227 254.235 299.227H242.639C241.859 299.227 241.103 298.953 240.503 298.452C239.904 297.952 239.499 297.257 239.36 296.489L238.206 290.135C237.513 289.881 236.834 289.602 236.17 289.298L230.862 292.97C230.22 293.413 229.443 293.617 228.666 293.547C227.889 293.477 227.161 293.137 226.609 292.586L218.409 284.386C217.857 283.834 217.516 283.106 217.446 282.328C217.376 281.551 217.581 280.773 218.025 280.131L221.699 274.829C221.396 274.164 221.116 273.484 220.862 272.795L214.506 271.637C213.738 271.497 213.043 271.093 212.543 270.494C212.043 269.894 211.77 269.138 211.77 268.358V256.762C211.77 255.982 212.044 255.226 212.544 254.627C213.045 254.028 213.74 253.623 214.508 253.484V253.484ZM218.437 265.574L224.004 266.59C224.613 266.7 225.18 266.978 225.641 267.393C226.101 267.807 226.437 268.342 226.61 268.937C227.067 270.521 227.696 272.051 228.486 273.498C228.784 274.041 228.925 274.656 228.893 275.275C228.861 275.894 228.657 276.491 228.304 277L225.091 281.639L229.355 285.905L233.999 282.693C234.507 282.341 235.104 282.137 235.723 282.105C236.341 282.073 236.956 282.214 237.499 282.511C238.946 283.303 240.477 283.933 242.062 284.389C242.657 284.562 243.192 284.898 243.607 285.358C244.022 285.818 244.3 286.384 244.411 286.994L245.421 292.56H251.454L252.465 286.993C252.576 286.384 252.854 285.817 253.269 285.357C253.684 284.897 254.219 284.562 254.814 284.389C256.399 283.932 257.929 283.302 259.377 282.511C259.92 282.213 260.535 282.073 261.153 282.105C261.771 282.137 262.368 282.341 262.877 282.693L267.519 285.906L271.784 281.639L268.57 277C268.217 276.491 268.014 275.893 267.982 275.275C267.95 274.656 268.091 274.041 268.39 273.498C269.18 272.051 269.809 270.521 270.266 268.937C270.439 268.342 270.774 267.807 271.235 267.393C271.695 266.978 272.262 266.7 272.872 266.59L278.437 265.574V259.546L272.87 258.53C272.26 258.42 271.693 258.142 271.233 257.728C270.773 257.313 270.437 256.778 270.264 256.183C269.807 254.599 269.178 253.07 268.388 251.623C268.09 251.08 267.949 250.464 267.981 249.845C268.013 249.227 268.217 248.629 268.57 248.12L271.783 243.478L267.519 239.214L262.877 242.427C262.367 242.778 261.77 242.98 261.152 243.012C260.534 243.045 259.92 242.905 259.377 242.609C257.929 241.818 256.398 241.188 254.813 240.731C254.218 240.558 253.683 240.222 253.268 239.762C252.853 239.302 252.575 238.736 252.464 238.126L251.453 232.56H245.42L244.409 238.127C244.298 238.736 244.02 239.303 243.605 239.763C243.19 240.223 242.655 240.558 242.06 240.731C240.475 241.188 238.944 241.818 237.497 242.609C236.953 242.905 236.339 243.045 235.721 243.013C235.103 242.98 234.506 242.778 233.997 242.427L229.355 239.214L225.09 243.478L228.304 248.12C228.656 248.629 228.86 249.227 228.892 249.846C228.924 250.464 228.783 251.08 228.484 251.623C227.694 253.07 227.065 254.599 226.608 256.183C226.435 256.778 226.099 257.313 225.639 257.728C225.179 258.142 224.612 258.42 224.002 258.53L218.435 259.546L218.437 265.574Z" fill="#FE9745"/>
<path d="M248.437 245.893C251.733 245.893 254.956 246.871 257.696 248.702C260.437 250.534 262.573 253.137 263.835 256.182C265.096 259.227 265.426 262.579 264.783 265.812C264.14 269.045 262.553 272.014 260.222 274.345C257.891 276.676 254.921 278.263 251.688 278.907C248.455 279.55 245.104 279.22 242.059 277.958C239.013 276.697 236.41 274.56 234.579 271.82C232.748 269.079 231.77 265.856 231.77 262.56C231.775 258.141 233.533 253.905 236.657 250.781C239.782 247.656 244.018 245.899 248.437 245.893V245.893ZM248.437 272.56C250.415 272.56 252.348 271.974 253.993 270.875C255.637 269.776 256.919 268.214 257.676 266.387C258.433 264.56 258.631 262.549 258.245 260.609C257.859 258.669 256.906 256.888 255.508 255.489C254.109 254.091 252.328 253.138 250.388 252.752C248.448 252.366 246.437 252.564 244.61 253.321C242.783 254.078 241.221 255.36 240.122 257.004C239.023 258.649 238.437 260.582 238.437 262.56C238.44 265.211 239.494 267.753 241.369 269.628C243.244 271.503 245.786 272.557 248.437 272.56V272.56Z" fill="#FE9745"/>
<path d="M191.831 200.757C192.296 194.015 195.3 187.7 200.238 183.086C205.176 178.472 211.679 175.902 218.437 175.893C220.5 175.894 222.557 176.138 224.563 176.619C227.311 170.677 231.928 165.798 237.71 162.728C243.491 159.658 250.119 158.565 256.581 159.616C263.042 160.667 268.982 163.805 273.491 168.551C278.001 173.296 280.833 179.387 281.555 185.893H281.77C289.483 185.903 296.897 188.879 302.476 194.205C308.055 199.531 311.371 206.799 311.737 214.503C317.48 216.816 322.238 221.056 325.196 226.494C328.154 231.933 329.128 238.231 327.949 244.309C326.77 250.387 323.513 255.865 318.736 259.803C313.96 263.742 307.961 265.895 301.77 265.893H295.104C294.22 265.893 293.372 265.542 292.747 264.917C292.121 264.292 291.77 263.444 291.77 262.56C291.77 261.676 292.121 260.828 292.747 260.203C293.372 259.578 294.22 259.227 295.104 259.227H301.77C306.577 259.228 311.224 257.497 314.859 254.351C318.494 251.205 320.874 246.855 321.563 242.098C322.252 237.34 321.204 232.494 318.611 228.446C316.018 224.398 312.054 221.42 307.444 220.057C306.735 219.847 306.115 219.408 305.683 218.808C305.251 218.209 305.03 217.482 305.056 216.743L305.104 215.893C305.125 212.576 304.433 209.293 303.077 206.265C301.72 203.238 299.73 200.537 297.24 198.344C294.75 196.152 291.819 194.519 288.644 193.557C285.469 192.594 282.125 192.324 278.837 192.765C278.361 192.802 277.883 192.739 277.433 192.58C276.983 192.421 276.571 192.169 276.225 191.841C275.869 191.505 275.586 191.1 275.393 190.65C275.2 190.2 275.102 189.716 275.104 189.227C275.106 183.695 273.142 178.342 269.562 174.125C265.983 169.907 261.021 167.099 255.562 166.202C250.104 165.305 244.504 166.378 239.763 169.228C235.022 172.078 231.448 176.521 229.68 181.762C229.538 182.185 229.312 182.574 229.016 182.907C228.72 183.24 228.36 183.511 227.958 183.703C227.557 183.897 227.12 184.007 226.674 184.027C226.228 184.047 225.783 183.977 225.366 183.82C222.327 182.685 219.057 182.309 215.84 182.724C212.623 183.139 209.555 184.332 206.904 186.2C204.252 188.069 202.096 190.556 200.623 193.446C199.15 196.336 198.404 199.541 198.45 202.785C198.45 202.818 198.473 203.156 198.473 203.192C198.502 203.969 198.259 204.733 197.785 205.35C197.311 205.967 196.636 206.399 195.877 206.57C189.48 208.018 183.842 211.773 180.041 217.116C176.239 222.46 174.54 229.018 175.27 235.535C175.999 242.052 179.105 248.072 183.995 252.443C188.884 256.814 195.212 259.229 201.77 259.227C202.654 259.227 203.502 259.578 204.127 260.203C204.752 260.828 205.104 261.676 205.104 262.56C205.104 263.444 204.752 264.292 204.127 264.917C203.502 265.542 202.654 265.893 201.77 265.893C193.802 265.895 186.096 263.041 180.051 257.85C174.006 252.658 170.021 245.472 168.819 237.595C167.617 229.718 169.277 221.67 173.499 214.912C177.721 208.154 184.224 203.132 191.831 200.757V200.757Z" fill="#FE9745"/>
</g>
<defs>
<filter id="filter0_b_401_5647" x="78.4623" y="47.5671" width="285.485" height="363.866" filterUnits="userSpaceOnUse" color-interpolation-filters="sRGB">
<feFlood flood-opacity="0" result="BackgroundImageFix"/>
<feGaussianBlur in="BackgroundImageFix" stdDeviation="9.32989"/>
<feComposite in2="SourceAlpha" operator="in" result="effect1_backgroundBlur_401_5647"/>
<feBlend mode="normal" in="SourceGraphic" in2="effect1_backgroundBlur_401_5647" result="shape"/>
</filter>
<filter id="filter1_b_401_5647" x="175.275" y="63.2425" width="242.262" height="120.059" filterUnits="userSpaceOnUse" color-interpolation-filters="sRGB">
<feFlood flood-opacity="0" result="BackgroundImageFix"/>
<feGaussianBlur in="BackgroundImageFix" stdDeviation="9.32989"/>
<feComposite in2="SourceAlpha" operator="in" result="effect1_backgroundBlur_401_5647"/>
<feBlend mode="normal" in="SourceGraphic" in2="effect1_backgroundBlur_401_5647" result="shape"/>
</filter>
<filter id="filter2_b_401_5647" x="163.905" y="283.462" width="243.865" height="109.489" filterUnits="userSpaceOnUse" color-interpolation-filters="sRGB">
<feFlood flood-opacity="0" result="BackgroundImageFix"/>
<feGaussianBlur in="BackgroundImageFix" stdDeviation="9.32989"/>
<feComposite in2="SourceAlpha" operator="in" result="effect1_backgroundBlur_401_5647"/>
<feBlend mode="normal" in="SourceGraphic" in2="effect1_backgroundBlur_401_5647" result="shape"/>
</filter>
<clipPath id="clip0_401_5647">
<rect width="160" height="160" fill="white" transform="matrix(-1 0 0 1 328.437 149.227)"/>
</clipPath>
</defs>
</svg>
