<svg width="496" height="401" viewBox="0 0 496 401" fill="none" xmlns="http://www.w3.org/2000/svg">
<g filter="url(#filter0_b_401_5671)">
<path d="M269.01 359.115C180.411 359.115 108.591 287.896 108.591 200.049C108.591 112.202 180.411 40.9831 269.01 40.9831C291.147 40.9831 312.182 45.4406 331.364 53.454C309.878 43.0867 285.838 37.2269 260.395 37.2269C170.244 37.2269 97.1221 110.299 97.1221 200.5C97.1221 290.701 170.194 363.773 260.395 363.773C291.497 363.773 320.546 355.059 345.287 339.983C322.549 352.204 296.606 359.115 269.01 359.115Z" fill="#FFC394"/>
</g>
<g filter="url(#filter1_b_401_5671)">
<path d="M398.877 129.03C375.839 87.0099 332.817 57.1098 281.481 53.3035C249.528 50.9495 219.227 59.0631 193.935 74.7394C217.324 61.2668 244.72 54.4554 273.518 56.5589C324.954 60.3653 367.725 91.868 389.011 135.641C392.266 133.438 395.522 131.234 398.877 129.03Z" fill="#FFC394"/>
</g>
<g filter="url(#filter2_b_401_5671)">
<path d="M382.6 273.122C355.905 317.046 306.673 344.842 252.532 340.835C226.438 338.932 202.548 329.867 182.565 315.693C204.251 332.121 230.796 342.739 259.994 344.892C312.432 348.749 360.362 324.408 389.11 284.742C387.057 280.835 385.004 276.878 382.6 273.122Z" fill="#FFC394"/>
</g>
<g clip-path="url(#clip0_401_5671)">
<path d="M173.29 192.869H248.437C251.113 192.869 253.29 195.046 253.29 197.722V240.399C253.599 240.383 253.909 240.367 254.215 240.345C255.506 240.249 256.632 241.226 256.724 242.52C256.817 243.814 255.843 244.938 254.549 245.03C254.132 245.06 253.712 245.084 253.29 245.103V255.335C253.29 258.011 251.113 260.188 248.437 260.188H221.039L222.957 275.53H225.58C226.877 275.53 227.928 276.582 227.928 277.879C227.928 279.175 226.877 280.227 225.58 280.227H195.834C194.537 280.227 193.486 279.175 193.486 277.879C193.486 276.582 194.537 275.53 195.834 275.53H198.771L200.688 260.188H173.29C170.614 260.188 168.437 258.01 168.437 255.335V197.722C168.437 195.046 170.614 192.869 173.29 192.869ZM218.223 275.53L216.305 260.188H205.422L203.504 275.53H218.223ZM173.133 255.334C173.133 255.421 173.204 255.491 173.29 255.491H248.437C248.523 255.491 248.593 255.421 248.593 255.334V250.168H173.133V255.334ZM173.133 245.471H248.593V207.585H173.133V245.471ZM173.133 202.888H248.593V197.722C248.593 197.636 248.523 197.565 248.437 197.565H173.29C173.204 197.565 173.133 197.635 173.133 197.722V202.888Z" fill="#FE9745"/>
<path d="M225.893 172.83H233.564V153.434C232.691 153.798 231.826 154.186 230.98 154.602C230.647 154.767 230.293 154.845 229.945 154.845C229.078 154.845 228.245 154.363 227.836 153.533C227.263 152.37 227.742 150.962 228.906 150.389C230.418 149.644 231.985 148.972 233.565 148.385V125.08C233.565 122.404 235.742 120.227 238.418 120.227H313.564C316.24 120.227 318.417 122.404 318.417 125.08V172.829H326.089C327.386 172.829 328.437 173.881 328.437 175.178V180.187C328.437 182.864 326.26 185.04 323.584 185.04H299.34C299.728 185.38 300.009 185.847 300.106 186.393C300.412 188.109 300.63 189.863 300.755 191.607C300.848 192.901 299.874 194.025 298.58 194.117C298.523 194.121 298.466 194.124 298.41 194.124C297.19 194.124 296.159 193.179 296.07 191.942C295.957 190.361 295.759 188.772 295.482 187.218C295.332 186.379 295.651 185.565 296.249 185.041H228.398C225.721 185.041 223.545 182.864 223.545 180.188V175.178C223.545 173.881 224.596 172.83 225.893 172.83ZM313.721 134.943H267.145C265.848 134.943 264.797 133.891 264.797 132.595C264.797 131.298 265.848 130.246 267.145 130.246H313.721V125.08C313.721 124.993 313.65 124.923 313.564 124.923H238.417C238.331 124.923 238.261 124.993 238.261 125.08V130.246H255.873C257.17 130.246 258.222 131.298 258.222 132.595C258.222 133.891 257.17 134.943 255.873 134.943H238.261V172.83H313.721V134.943ZM228.241 180.188C228.241 180.274 228.312 180.344 228.398 180.344H323.584C323.67 180.344 323.74 180.274 323.74 180.188V177.526H228.241V180.188Z" fill="#FE9745"/>
<path d="M263.638 238.656C265.167 238.21 266.688 237.677 268.16 237.07C269.359 236.576 270.732 237.149 271.226 238.348C271.72 239.547 271.148 240.919 269.949 241.413C268.323 242.083 266.642 242.672 264.954 243.165C264.734 243.229 264.513 243.26 264.295 243.26C263.278 243.26 262.341 242.594 262.042 241.568C261.678 240.324 262.393 239.02 263.638 238.656Z" fill="#FE9745"/>
<path d="M276.575 232.505C277.23 232.055 277.877 231.583 278.499 231.105C278.549 231.066 278.601 231.032 278.652 230.998V210.246C278.652 207.57 280.83 205.393 283.506 205.393H295.034C295.333 204.094 295.579 202.772 295.761 201.451C295.938 200.166 297.122 199.267 298.408 199.445C299.693 199.622 300.591 200.807 300.414 202.092C300.262 203.195 300.067 204.299 299.841 205.393H313.564C316.241 205.393 318.417 207.57 318.417 210.246V260.344C318.417 263.02 316.24 265.197 313.564 265.197H283.506C280.829 265.197 278.652 263.02 278.652 260.344V236.662C278.41 236.744 278.159 236.787 277.909 236.787C277.163 236.787 276.429 236.432 275.973 235.771C275.237 234.703 275.507 233.241 276.575 232.505ZM283.349 260.344C283.349 260.431 283.419 260.501 283.506 260.501H313.564C313.651 260.501 313.721 260.431 313.721 260.344V255.178H283.349V260.344ZM283.349 250.481H313.721V217.605H283.349V250.481ZM283.349 212.908H313.721V210.246C313.721 210.16 313.651 210.09 313.564 210.09H283.506C283.419 210.09 283.349 210.16 283.349 210.246V212.908Z" fill="#FE9745"/>
<path d="M201.686 186.924C201.974 185.201 202.358 183.475 202.826 181.793C203.173 180.544 204.469 179.813 205.718 180.161C206.968 180.509 207.698 181.804 207.35 183.053C206.926 184.576 206.579 186.139 206.319 187.698C206.127 188.846 205.133 189.659 204.005 189.659C203.877 189.659 203.746 189.649 203.615 189.627C202.336 189.413 201.472 188.203 201.686 186.924Z" fill="#FE9745"/>
<path d="M216.083 159.454C217.334 158.235 218.662 157.069 220.031 155.989C221.049 155.186 222.526 155.359 223.329 156.378C224.133 157.395 223.959 158.872 222.941 159.676C221.7 160.655 220.496 161.712 219.362 162.817C218.905 163.262 218.313 163.484 217.723 163.484C217.112 163.484 216.501 163.247 216.041 162.775C215.135 161.846 215.154 160.359 216.083 159.454Z" fill="#FE9745"/>
<path d="M206.695 172.038C207.506 170.493 208.408 168.974 209.377 167.522C210.097 166.443 211.556 166.153 212.634 166.873C213.713 167.593 214.003 169.051 213.283 170.13C212.405 171.445 211.587 172.821 210.853 174.22C210.433 175.02 209.617 175.478 208.772 175.478C208.404 175.478 208.031 175.391 207.683 175.208C206.534 174.605 206.092 173.186 206.695 172.038Z" fill="#FE9745"/>
</g>
<defs>
<filter id="filter0_b_401_5671" x="78.4623" y="18.5671" width="285.485" height="363.866" filterUnits="userSpaceOnUse" color-interpolation-filters="sRGB">
<feFlood flood-opacity="0" result="BackgroundImageFix"/>
<feGaussianBlur in="BackgroundImageFix" stdDeviation="9.32989"/>
<feComposite in2="SourceAlpha" operator="in" result="effect1_backgroundBlur_401_5671"/>
<feBlend mode="normal" in="SourceGraphic" in2="effect1_backgroundBlur_401_5671" result="shape"/>
</filter>
<filter id="filter1_b_401_5671" x="175.275" y="34.2424" width="242.262" height="120.059" filterUnits="userSpaceOnUse" color-interpolation-filters="sRGB">
<feFlood flood-opacity="0" result="BackgroundImageFix"/>
<feGaussianBlur in="BackgroundImageFix" stdDeviation="9.32989"/>
<feComposite in2="SourceAlpha" operator="in" result="effect1_backgroundBlur_401_5671"/>
<feBlend mode="normal" in="SourceGraphic" in2="effect1_backgroundBlur_401_5671" result="shape"/>
</filter>
<filter id="filter2_b_401_5671" x="163.905" y="254.462" width="243.865" height="109.489" filterUnits="userSpaceOnUse" color-interpolation-filters="sRGB">
<feFlood flood-opacity="0" result="BackgroundImageFix"/>
<feGaussianBlur in="BackgroundImageFix" stdDeviation="9.32989"/>
<feComposite in2="SourceAlpha" operator="in" result="effect1_backgroundBlur_401_5671"/>
<feBlend mode="normal" in="SourceGraphic" in2="effect1_backgroundBlur_401_5671" result="shape"/>
</filter>
<clipPath id="clip0_401_5671">
<rect width="160" height="160" fill="white" transform="matrix(-1 0 0 1 328.437 120.227)"/>
</clipPath>
</defs>
</svg>
