<svg width="529" height="337" viewBox="0 0 529 337" fill="none" xmlns="http://www.w3.org/2000/svg">
<g filter="url(#filter0_b_265_21258)">
<path d="M285.573 326.889C196.974 326.889 125.154 255.669 125.154 167.822C125.154 79.9754 196.974 8.75628 285.573 8.75628C307.71 8.75628 328.745 13.2137 347.927 21.2272C326.441 10.8598 302.401 5 276.958 5C186.807 5 113.685 78.0723 113.685 168.273C113.685 258.474 186.757 331.546 276.958 331.546C308.06 331.546 337.109 322.832 361.85 307.757C339.112 319.977 313.169 326.889 285.573 326.889Z" fill="#FFC394"/>
</g>
<g filter="url(#filter1_b_265_21258)">
<path d="M415.44 96.8032C392.402 54.7829 349.38 24.8829 298.044 21.0765C266.091 18.7226 235.79 26.8362 210.498 42.5124C233.887 29.0399 261.283 22.2285 290.081 24.332C341.517 28.1384 384.288 59.6411 405.574 103.414C408.829 101.211 412.085 99.0069 415.44 96.8032Z" fill="#FFC394"/>
</g>
<g filter="url(#filter2_b_265_21258)">
<path d="M399.163 240.895C372.468 284.819 323.236 312.615 269.095 308.609C243.001 306.705 219.111 297.64 199.128 283.466C220.814 299.894 247.359 310.512 276.557 312.665C328.995 316.522 376.925 292.181 405.673 252.515C403.62 248.608 401.567 244.652 399.163 240.895Z" fill="#FFC394"/>
</g>
<path fill-rule="evenodd" clip-rule="evenodd" d="M193.251 181.301H207.695V171.753C207.695 170.372 208.815 169.253 210.195 169.253H262.5L267.5 169.252H319.805C321.186 169.252 322.305 170.372 322.305 171.752V181.3H336.749C338.13 181.3 339.249 182.419 339.249 183.8V243C339.249 244.381 338.13 245.5 336.749 245.5H302.861C301.48 245.5 300.361 244.381 300.361 243V183.801C300.361 182.42 301.48 181.301 302.861 181.301H317.305V174.253H267.5V181.301H281.944C283.325 181.301 284.444 182.42 284.444 183.801V243C284.444 244.381 283.325 245.5 281.944 245.5H248.056C246.675 245.5 245.556 244.381 245.556 243V183.801C245.556 182.42 246.675 181.301 248.056 181.301H262.5V174.253H212.695V181.301H227.139C228.52 181.301 229.639 182.42 229.639 183.801V243C229.639 244.381 228.52 245.5 227.139 245.5H193.251C191.87 245.5 190.751 244.381 190.751 243V183.801C190.751 182.42 191.87 181.301 193.251 181.301ZM334.249 240.5H305.361V186.301H334.249V240.5ZM279.444 240.5H250.556V186.301H279.444V240.5ZM224.639 240.5H195.751V186.301H224.639V240.5Z" fill="#FE9745"/>
<path fill-rule="evenodd" clip-rule="evenodd" d="M210.195 220.846C214.869 220.846 218.671 224.648 218.671 229.322C218.671 233.995 214.869 237.797 210.195 237.797C205.522 237.797 201.72 233.995 201.72 229.322C201.72 224.648 205.522 220.846 210.195 220.846ZM213.671 229.322C213.671 231.238 212.112 232.798 210.195 232.798C208.279 232.798 206.72 231.238 206.72 229.322C206.72 227.405 208.279 225.846 210.195 225.846C212.112 225.846 213.671 227.405 213.671 229.322Z" fill="#FE9745"/>
<path fill-rule="evenodd" clip-rule="evenodd" d="M265 220.846C269.673 220.846 273.476 224.648 273.476 229.322C273.476 233.995 269.673 237.797 265 237.797C260.327 237.797 256.524 233.995 256.524 229.322C256.524 224.648 260.327 220.846 265 220.846ZM268.476 229.322C268.476 231.238 266.917 232.798 265 232.798C263.084 232.798 261.524 231.238 261.524 229.322C261.524 227.405 263.083 225.846 265 225.846C266.917 225.846 268.476 227.405 268.476 229.322Z" fill="#FE9745"/>
<path fill-rule="evenodd" clip-rule="evenodd" d="M275.879 196.936C275.879 195.555 274.759 194.436 273.379 194.436H256.622C255.241 194.436 254.122 195.555 254.122 196.936C254.122 198.317 255.241 199.436 256.622 199.436H273.379C274.759 199.436 275.879 198.317 275.879 196.936ZM275.879 208.993C275.879 207.612 274.759 206.493 273.379 206.493H256.622C255.241 206.493 254.122 207.612 254.122 208.993C254.122 210.373 255.241 211.493 256.622 211.493H273.379C274.759 211.493 275.879 210.373 275.879 208.993ZM330.684 196.936C330.684 195.555 329.564 194.436 328.184 194.436H311.427C310.046 194.436 308.927 195.555 308.927 196.936C308.927 198.317 310.046 199.436 311.427 199.436H328.184C329.564 199.436 330.684 198.317 330.684 196.936ZM330.684 208.993C330.684 207.612 329.564 206.493 328.184 206.493H311.427C310.046 206.493 308.927 207.612 308.927 208.993C308.927 210.373 310.046 211.493 311.427 211.493H328.184C329.564 211.493 330.684 210.373 330.684 208.993ZM218.574 194.436C219.955 194.436 221.074 195.555 221.074 196.936C221.074 198.317 219.955 199.436 218.574 199.436H201.817C200.436 199.436 199.317 198.317 199.317 196.936C199.317 195.555 200.436 194.436 201.817 194.436H218.574ZM218.574 206.493C219.955 206.493 221.074 207.612 221.074 208.993C221.074 210.373 219.955 211.493 218.574 211.493H201.817C200.436 211.493 199.317 210.373 199.317 208.993C199.317 207.612 200.436 206.493 201.817 206.493H218.574Z" fill="#FE9745"/>
<path fill-rule="evenodd" clip-rule="evenodd" d="M319.805 220.846C324.478 220.846 328.281 224.648 328.281 229.322C328.281 233.995 324.478 237.797 319.805 237.797C315.132 237.797 311.329 233.995 311.329 229.322C311.329 224.648 315.132 220.846 319.805 220.846ZM323.281 229.322C323.281 231.238 321.722 232.798 319.805 232.798C317.888 232.798 316.329 231.238 316.329 229.322C316.329 227.405 317.888 225.846 319.805 225.846C321.722 225.846 323.281 227.405 323.281 229.322Z" fill="#FE9745"/>
<path d="M225.555 133.783C225.169 133.41 224.87 132.955 224.681 132.453C224.492 131.95 224.418 131.412 224.463 130.877C224.508 130.341 224.672 129.823 224.943 129.359C225.214 128.895 225.584 128.498 226.028 128.195C237.56 120.704 251.021 116.728 264.773 116.75C279.06 116.75 292.373 120.95 303.518 128.195C303.964 128.496 304.336 128.893 304.609 129.357C304.881 129.821 305.046 130.34 305.091 130.876C305.136 131.412 305.061 131.951 304.871 132.454C304.68 132.957 304.379 133.411 303.99 133.783C303.351 134.406 302.519 134.794 301.631 134.883C300.742 134.971 299.85 134.755 299.1 134.27C288.855 127.708 276.939 124.23 264.773 124.25C252.609 124.231 240.696 127.709 230.453 134.27C228.908 135.26 226.853 135.08 225.555 133.783ZM241.928 150.155C240.233 148.46 240.54 145.618 242.678 144.53C249.522 141.047 257.094 139.238 264.773 139.25C272.723 139.25 280.238 141.155 286.868 144.53C289.005 145.618 289.313 148.46 287.618 150.155L287.505 150.268C286.305 151.468 284.453 151.693 282.923 150.943C277.274 148.174 271.064 146.74 264.773 146.75C258.263 146.75 252.098 148.258 246.623 150.95C245.1 151.7 243.248 151.475 242.048 150.268L241.928 150.155ZM256.823 165.05C255.353 163.58 255.338 161.15 257.123 160.1C259.437 158.723 262.08 157.997 264.773 158C267.465 157.997 270.109 158.723 272.423 160.1C274.208 161.15 274.193 163.58 272.723 165.05L267.428 170.345C266.725 171.048 265.771 171.443 264.776 171.443C263.782 171.443 262.828 171.048 262.125 170.345L256.823 165.043V165.05Z" fill="#FE9745"/>
<path d="M209.391 117.613C209.014 117.246 208.721 116.803 208.532 116.312C208.342 115.822 208.262 115.296 208.295 114.771C208.329 114.247 208.476 113.736 208.726 113.273C208.976 112.811 209.323 112.408 209.744 112.093C225.734 100.467 245.002 94.2195 264.771 94.2501C285.329 94.2501 304.349 100.865 319.799 112.093C320.22 112.407 320.568 112.81 320.818 113.272C321.069 113.734 321.217 114.245 321.251 114.77C321.285 115.294 321.205 115.82 321.017 116.311C320.828 116.802 320.535 117.246 320.159 117.613C319.503 118.258 318.64 118.65 317.722 118.719C316.805 118.788 315.893 118.528 315.149 117.988C300.485 107.405 282.855 101.722 264.771 101.75C245.969 101.75 228.569 107.765 214.401 117.98C212.864 119.09 210.726 118.955 209.391 117.613Z" fill="#FE9745"/>
<defs>
<filter id="filter0_b_265_21258" x="95.0253" y="-13.6598" width="285.485" height="363.866" filterUnits="userSpaceOnUse" color-interpolation-filters="sRGB">
<feFlood flood-opacity="0" result="BackgroundImageFix"/>
<feGaussianBlur in="BackgroundImageFix" stdDeviation="9.32989"/>
<feComposite in2="SourceAlpha" operator="in" result="effect1_backgroundBlur_265_21258"/>
<feBlend mode="normal" in="SourceGraphic" in2="effect1_backgroundBlur_265_21258" result="shape"/>
</filter>
<filter id="filter1_b_265_21258" x="191.838" y="2.0155" width="242.262" height="120.059" filterUnits="userSpaceOnUse" color-interpolation-filters="sRGB">
<feFlood flood-opacity="0" result="BackgroundImageFix"/>
<feGaussianBlur in="BackgroundImageFix" stdDeviation="9.32989"/>
<feComposite in2="SourceAlpha" operator="in" result="effect1_backgroundBlur_265_21258"/>
<feBlend mode="normal" in="SourceGraphic" in2="effect1_backgroundBlur_265_21258" result="shape"/>
</filter>
<filter id="filter2_b_265_21258" x="180.468" y="222.235" width="243.865" height="109.489" filterUnits="userSpaceOnUse" color-interpolation-filters="sRGB">
<feFlood flood-opacity="0" result="BackgroundImageFix"/>
<feGaussianBlur in="BackgroundImageFix" stdDeviation="9.32989"/>
<feComposite in2="SourceAlpha" operator="in" result="effect1_backgroundBlur_265_21258"/>
<feBlend mode="normal" in="SourceGraphic" in2="effect1_backgroundBlur_265_21258" result="shape"/>
</filter>
</defs>
</svg>
