<svg width="545" height="353" viewBox="0 0 545 353" fill="none" xmlns="http://www.w3.org/2000/svg">
<g filter="url(#filter0_b_265_21260)">
<path d="M301.573 342.889C212.974 342.889 141.154 271.669 141.154 183.822C141.154 95.9754 212.974 24.7563 301.573 24.7563C323.71 24.7563 344.745 29.2137 363.927 37.2272C342.441 26.8598 318.401 21 292.958 21C202.807 21 129.685 94.0723 129.685 184.273C129.685 274.474 202.757 347.546 292.958 347.546C324.06 347.546 353.109 338.832 377.85 323.757C355.112 335.977 329.169 342.889 301.573 342.889Z" fill="#FFC394"/>
</g>
<g filter="url(#filter1_b_265_21260)">
<path d="M431.44 112.803C408.402 70.7829 365.38 40.8829 314.044 37.0765C282.091 34.7226 251.79 42.8362 226.498 58.5124C249.887 45.0399 277.283 38.2285 306.081 40.332C357.517 44.1384 400.288 75.6411 421.574 119.414C424.829 117.211 428.085 115.007 431.44 112.803Z" fill="#FE9745"/>
</g>
<g filter="url(#filter2_b_265_21260)">
<path d="M415.163 256.895C388.468 300.819 339.236 328.615 285.095 324.609C259.001 322.705 235.111 313.64 215.128 299.466C236.814 315.894 263.359 326.512 292.557 328.665C344.995 332.522 392.925 308.181 421.673 268.515C419.62 264.608 417.567 260.652 415.163 256.895Z" fill="#FFC394"/>
</g>
<g clip-path="url(#clip0_265_21260)">
<path d="M280.2 250.664C280.2 252.447 279.309 254.112 277.826 255.102L265.823 263.104C264.946 263.688 263.916 264 262.862 264H234.322C228.429 264 223.653 259.223 223.653 253.331V183.981C223.653 178.088 228.429 173.311 234.322 173.311V141.304C234.335 121.387 249.966 104.981 269.858 104.004C271.503 103.94 273.086 104.627 274.164 105.871L277.532 109.83C279.259 111.824 279.259 114.784 277.532 116.778L274.022 120.856C273.087 121.937 271.755 122.595 270.328 122.68C260.573 123.409 253.021 131.522 252.993 141.304V173.311H262.862C263.915 173.311 264.946 173.623 265.823 174.208L277.825 182.21C279.309 183.199 280.201 184.865 280.201 186.648C280.201 188.431 279.31 190.097 277.825 191.086L268.463 197.317L277.799 203.548C279.283 204.537 280.174 206.203 280.174 207.986C280.174 209.77 279.283 211.435 277.799 212.424L268.463 218.655L277.799 224.886C279.283 225.875 280.174 227.541 280.174 229.324C280.174 231.108 279.283 232.773 277.799 233.763L268.463 239.994L277.799 246.224C279.295 247.207 280.197 248.874 280.2 250.664ZM269.973 117.373L273.483 113.297L270.114 109.336C253.066 110.175 239.67 124.235 239.656 141.304V173.311H247.658V141.304C247.691 128.718 257.42 118.284 269.973 117.373ZM265.513 244.433C264.03 243.443 263.138 241.778 263.138 239.995C263.138 238.211 264.029 236.546 265.513 235.556L274.865 229.325L265.529 223.094C264.046 222.105 263.154 220.439 263.154 218.656C263.154 216.873 264.045 215.207 265.529 214.218L274.865 207.987L265.529 201.756C264.046 200.767 263.154 199.101 263.154 197.318C263.154 195.534 264.045 193.869 265.529 192.88L274.865 186.649L262.862 178.647H234.322C231.375 178.647 228.987 181.035 228.987 183.982V253.332C228.987 256.278 231.375 258.667 234.322 258.667H262.862L274.865 250.665L265.513 244.433Z" fill="#FE9745"/>
<path d="M289.693 106.215C290.447 104.79 291.984 103.957 293.59 104.103C312.83 105.889 327.575 121.981 327.678 141.304V173.312C333.57 173.312 338.347 178.089 338.347 183.981V253.331C338.347 259.223 333.57 264 327.678 264H291.136C288.785 264.001 286.711 262.462 286.029 260.212C285.347 257.963 286.219 255.532 288.175 254.227L293.536 250.664L284.201 244.433C282.717 243.443 281.825 241.778 281.825 239.994C281.825 238.211 282.716 236.545 284.201 235.556L293.536 229.325L284.201 223.094C282.717 222.105 281.825 220.439 281.825 218.656C281.825 216.873 282.716 215.207 284.201 214.218L293.536 207.987L284.201 201.756C282.717 200.767 281.825 199.101 281.825 197.318C281.825 195.534 282.716 193.869 284.201 192.88L293.536 186.649L288.202 183.085C286.25 181.783 285.377 179.36 286.052 177.113C286.726 174.866 288.79 173.323 291.136 173.312H309.007V141.304C309.008 131.828 301.911 123.854 292.499 122.756C291.057 122.59 289.82 121.654 289.269 120.312C288.718 118.97 288.941 117.434 289.85 116.304L292.251 113.298L290.095 110.601C289.097 109.351 288.938 107.626 289.693 106.215ZM296.486 182.21C297.97 183.199 298.861 184.865 298.861 186.648C298.861 188.431 297.97 190.097 296.486 191.086L287.135 197.317L296.47 203.548C297.954 204.537 298.845 206.203 298.845 207.986C298.845 209.77 297.954 211.435 296.47 212.425L287.135 218.656L296.47 224.886C297.954 225.876 298.845 227.541 298.845 229.325C298.845 231.108 297.954 232.774 296.47 233.763L287.135 239.994L296.47 246.225C297.954 247.214 298.845 248.88 298.845 250.663C298.845 252.447 297.954 254.112 296.47 255.101L291.136 258.665H327.678C330.624 258.665 333.013 256.277 333.013 253.33V183.981C333.013 181.035 330.624 178.646 327.678 178.646H291.136L296.486 182.21ZM314.341 141.304V173.312H322.343V141.304C322.257 125.972 311.381 112.822 296.337 109.862L297.087 110.798C298.262 112.257 298.262 114.338 297.087 115.796L295.449 117.842C306.48 120.247 314.345 130.014 314.341 141.304Z" fill="#FE9745"/>
<path d="M325.011 189.315C323.538 189.315 322.344 188.121 322.344 186.648C322.344 185.175 323.538 183.981 325.011 183.981C326.484 183.981 327.678 185.175 327.678 186.648C327.678 188.121 326.484 189.315 325.011 189.315Z" fill="#FE9745"/>
<path d="M236.99 189.315C235.516 189.315 234.322 188.121 234.322 186.648C234.322 185.175 235.516 183.981 236.99 183.981C238.463 183.981 239.657 185.175 239.657 186.648C239.657 188.121 238.463 189.315 236.99 189.315Z" fill="#FE9745"/>
<path d="M325.011 253.331C323.538 253.331 322.344 252.137 322.344 250.664C322.344 249.191 323.538 247.997 325.011 247.997C326.484 247.997 327.678 249.191 327.678 250.664C327.678 252.137 326.484 253.331 325.011 253.331Z" fill="#FE9745"/>
<path d="M236.99 253.331C235.516 253.331 234.322 252.137 234.322 250.664C234.322 249.191 235.516 247.997 236.99 247.997C238.463 247.997 239.657 249.191 239.657 250.664C239.657 252.137 238.463 253.331 236.99 253.331Z" fill="#FE9745"/>
</g>
<defs>
<filter id="filter0_b_265_21260" x="111.025" y="2.34021" width="285.485" height="363.866" filterUnits="userSpaceOnUse" color-interpolation-filters="sRGB">
<feFlood flood-opacity="0" result="BackgroundImageFix"/>
<feGaussianBlur in="BackgroundImageFix" stdDeviation="9.32989"/>
<feComposite in2="SourceAlpha" operator="in" result="effect1_backgroundBlur_265_21260"/>
<feBlend mode="normal" in="SourceGraphic" in2="effect1_backgroundBlur_265_21260" result="shape"/>
</filter>
<filter id="filter1_b_265_21260" x="207.838" y="18.0155" width="242.262" height="120.059" filterUnits="userSpaceOnUse" color-interpolation-filters="sRGB">
<feFlood flood-opacity="0" result="BackgroundImageFix"/>
<feGaussianBlur in="BackgroundImageFix" stdDeviation="9.32989"/>
<feComposite in2="SourceAlpha" operator="in" result="effect1_backgroundBlur_265_21260"/>
<feBlend mode="normal" in="SourceGraphic" in2="effect1_backgroundBlur_265_21260" result="shape"/>
</filter>
<filter id="filter2_b_265_21260" x="196.468" y="238.235" width="243.865" height="109.489" filterUnits="userSpaceOnUse" color-interpolation-filters="sRGB">
<feFlood flood-opacity="0" result="BackgroundImageFix"/>
<feGaussianBlur in="BackgroundImageFix" stdDeviation="9.32989"/>
<feComposite in2="SourceAlpha" operator="in" result="effect1_backgroundBlur_265_21260"/>
<feBlend mode="normal" in="SourceGraphic" in2="effect1_backgroundBlur_265_21260" result="shape"/>
</filter>
<clipPath id="clip0_265_21260">
<rect width="160" height="160" fill="white" transform="matrix(-1 0 0 1 361 104)"/>
</clipPath>
</defs>
</svg>
