<svg width="529" height="337" viewBox="0 0 529 337" fill="none" xmlns="http://www.w3.org/2000/svg">
<g filter="url(#filter0_b_265_21259)">
<path d="M285.573 326.889C196.974 326.889 125.154 255.669 125.154 167.822C125.154 79.9754 196.974 8.75628 285.573 8.75628C307.71 8.75628 328.745 13.2137 347.927 21.2272C326.441 10.8598 302.401 5 276.958 5C186.807 5 113.685 78.0723 113.685 168.273C113.685 258.474 186.757 331.546 276.958 331.546C308.06 331.546 337.109 322.832 361.85 307.757C339.112 319.977 313.169 326.889 285.573 326.889Z" fill="#FFC394"/>
</g>
<g filter="url(#filter1_b_265_21259)">
<path d="M415.44 96.8032C392.402 54.7829 349.38 24.8829 298.044 21.0765C266.091 18.7226 235.79 26.8362 210.498 42.5124C233.887 29.0399 261.283 22.2285 290.081 24.332C341.517 28.1384 384.288 59.6411 405.574 103.414C408.829 101.211 412.085 99.0069 415.44 96.8032Z" fill="#FFC394"/>
</g>
<g filter="url(#filter2_b_265_21259)">
<path d="M399.163 240.895C372.468 284.819 323.236 312.615 269.095 308.609C243.001 306.705 219.111 297.64 199.128 283.466C220.814 299.894 247.359 310.512 276.557 312.665C328.995 316.522 376.925 292.181 405.673 252.515C403.62 248.608 401.567 244.652 399.163 240.895Z" fill="#FFC394"/>
</g>
<g clip-path="url(#clip0_265_21259)">
<path d="M267.777 143.359L263.64 146.758C263.207 147.115 262.679 147.292 262.152 147.292C261.582 147.292 261.013 147.084 260.565 146.673L249.643 136.634C248.69 135.757 248.629 134.277 249.504 133.325C250.381 132.372 251.863 132.31 252.815 133.187L262.237 141.848L264.8 139.741C265.799 138.919 267.277 139.063 268.098 140.063C268.921 141.061 268.777 142.537 267.777 143.359Z" fill="#FE9745"/>
<path d="M286.615 140.868C286.615 155.394 274.786 167.211 260.248 167.211C245.714 167.211 233.889 155.394 233.889 140.868C233.889 126.342 245.714 114.524 260.248 114.524C274.786 114.524 286.615 126.342 286.615 140.868ZM260.248 119.208C248.297 119.208 238.575 128.925 238.575 140.868C238.575 152.812 248.297 162.529 260.248 162.529C272.202 162.529 281.929 152.812 281.929 140.868C281.929 128.925 272.202 119.208 260.248 119.208Z" fill="#FE9745"/>
<path fill-rule="evenodd" clip-rule="evenodd" d="M195.05 88.9373H325.446C330.986 88.9373 335.496 93.6296 335.496 99.3975V157.393H339.645C342.598 157.393 345 159.798 345 162.754V241.702C345 244.657 342.598 247.062 339.645 247.062H290.269C287.311 247.062 284.905 244.657 284.905 241.701V226.938H220.004C217.667 226.938 215.765 225.037 215.765 222.702V217.479C215.765 212.266 220.011 208.027 225.231 208.027H229.745L231.604 202.83H195.05C189.508 202.83 185 198.138 185 192.37V99.3975C185 93.6296 189.508 88.9373 195.05 88.9373ZM325.446 93.6211C328.403 93.6211 330.809 96.2126 330.809 99.3975V157.393H326.096V103.223C326.096 100.838 324.159 98.897 321.777 98.897L265.005 98.853L264.983 98.8531L255.306 98.897L198.533 98.853C196.213 98.853 194.398 100.772 194.398 103.223V178.514C194.398 180.898 196.335 182.839 198.717 182.839H284.905V187.619V192.303V198.146H195.05C192.092 198.146 189.686 195.555 189.686 192.37V192.303V187.619V99.3975C189.686 96.2114 192.092 93.6211 195.05 93.6211H325.446ZM199.084 103.538L255.304 103.581L255.326 103.581L265.002 103.537L321.41 103.581V157.393H290.269C287.311 157.393 284.905 159.798 284.905 162.754V178.155H199.084V103.538ZM290.269 162.077H339.645C340.007 162.077 340.314 162.387 340.314 162.754V166.761H320.626H310.067H289.591V162.754C289.591 162.387 289.901 162.077 290.269 162.077ZM289.591 171.445H310.067H320.626H340.314V233.1H289.591V171.445ZM339.645 242.378H290.269C289.907 242.378 289.591 242.062 289.591 241.701V237.784H340.314V241.701C340.314 242.068 340.007 242.378 339.645 242.378ZM220.452 222.255V217.479C220.452 214.849 222.595 212.71 225.231 212.71H231.382L231.395 212.712L231.404 212.71H284.905V222.255H220.452ZM284.905 208.027H234.722L236.581 202.83H284.905V208.027Z" fill="#FE9745"/>
<path d="M321.509 205.178L318.718 207.462C318.285 207.816 317.759 207.992 317.234 207.992C316.663 207.992 316.094 207.784 315.647 207.373L308.303 200.617C307.351 199.742 307.289 198.26 308.167 197.308C309.042 196.357 310.524 196.296 311.477 197.171L317.323 202.55L318.539 201.554C319.54 200.735 321.017 200.881 321.837 201.882C322.656 202.883 322.51 204.358 321.509 205.178Z" fill="#FE9745"/>
<path d="M334.122 202.578C334.122 212.784 325.814 221.086 315.603 221.086C305.393 221.086 297.085 212.784 297.085 202.578C297.085 192.373 305.392 184.07 315.603 184.07C325.814 184.07 334.122 192.373 334.122 202.578ZM315.603 188.753C307.976 188.753 301.771 194.955 301.771 202.578C301.771 210.201 307.976 216.402 315.603 216.402C323.231 216.402 329.436 210.201 329.436 202.578C329.436 194.956 323.231 188.753 315.603 188.753Z" fill="#FE9745"/>
</g>
<defs>
<filter id="filter0_b_265_21259" x="95.0253" y="-13.6598" width="285.485" height="363.866" filterUnits="userSpaceOnUse" color-interpolation-filters="sRGB">
<feFlood flood-opacity="0" result="BackgroundImageFix"/>
<feGaussianBlur in="BackgroundImageFix" stdDeviation="9.32989"/>
<feComposite in2="SourceAlpha" operator="in" result="effect1_backgroundBlur_265_21259"/>
<feBlend mode="normal" in="SourceGraphic" in2="effect1_backgroundBlur_265_21259" result="shape"/>
</filter>
<filter id="filter1_b_265_21259" x="191.838" y="2.0155" width="242.262" height="120.059" filterUnits="userSpaceOnUse" color-interpolation-filters="sRGB">
<feFlood flood-opacity="0" result="BackgroundImageFix"/>
<feGaussianBlur in="BackgroundImageFix" stdDeviation="9.32989"/>
<feComposite in2="SourceAlpha" operator="in" result="effect1_backgroundBlur_265_21259"/>
<feBlend mode="normal" in="SourceGraphic" in2="effect1_backgroundBlur_265_21259" result="shape"/>
</filter>
<filter id="filter2_b_265_21259" x="180.468" y="222.235" width="243.865" height="109.489" filterUnits="userSpaceOnUse" color-interpolation-filters="sRGB">
<feFlood flood-opacity="0" result="BackgroundImageFix"/>
<feGaussianBlur in="BackgroundImageFix" stdDeviation="9.32989"/>
<feComposite in2="SourceAlpha" operator="in" result="effect1_backgroundBlur_265_21259"/>
<feBlend mode="normal" in="SourceGraphic" in2="effect1_backgroundBlur_265_21259" result="shape"/>
</filter>
<clipPath id="clip0_265_21259">
<rect width="160" height="160" fill="white" transform="matrix(-1 0 0 1 345 88)"/>
</clipPath>
</defs>
</svg>
